<svg xmlns="http://www.w3.org/2000/svg" width="71" height="70" viewBox="0 0 71 70" fill="none">
<ellipse cx="35.0212" cy="35" rx="35.0212" ry="35" fill="#17252A"/>
<path d="M47.0406 37.3785L48.8818 38.0145C48.9452 38.0195 49.0064 38.0399 49.06 38.0739C49.0239 38.1271 48.9812 38.1756 48.9328 38.218C48.6902 38.7617 48.4462 39.3054 48.202 39.8497C47.8482 40.6382 47.4938 41.4278 47.1425 42.2204C47.0927 42.298 47.0582 42.3844 47.0406 42.4748C46.9134 42.5003 46.9134 42.5851 46.9134 42.6529C46.574 43.3906 46.2431 44.1284 45.9122 44.8661L44.58 47.8425C44.5291 47.9018 44.5291 47.9612 44.5291 48.0375C44.473 48.1073 44.4325 48.1882 44.4103 48.2749C44.364 48.4173 44.3013 48.5539 44.2237 48.682C44.1954 48.747 44.168 48.8129 44.1407 48.8789C44.086 49.0108 44.0313 49.1427 43.9691 49.2671V49.3603C43.8735 49.6276 43.7601 49.8883 43.6297 50.1405C43.0922 51.3508 42.5497 52.5562 42.0061 53.7642C41.8375 54.1389 41.6687 54.5137 41.5 54.8891C41.4237 54.9654 41.4237 55.0418 41.4237 55.1181C41.4178 55.1644 41.4023 55.2089 41.378 55.2487C41.3537 55.2886 41.3213 55.3228 41.2828 55.3493C41.2444 55.3757 41.2007 55.3937 41.1548 55.4021C41.1089 55.4104 41.0617 55.409 41.0164 55.3979C40.94 55.3986 40.8659 55.3714 40.8082 55.3215C40.7504 55.2715 40.7128 55.2022 40.7025 55.1265C40.6186 54.8534 40.5077 54.5892 40.3715 54.3379C39.8224 53.0895 39.2678 51.8521 38.7121 50.6124C38.5808 50.3196 38.4495 50.0267 38.3182 49.7335L36.7485 46.2313C36.5837 45.8332 36.4244 45.4907 36.2617 45.1408C36.2234 45.0584 36.1849 44.9756 36.1461 44.8915C36.1424 44.8577 36.1424 44.8236 36.1461 44.7898C36.0231 44.5655 35.9154 44.3332 35.8237 44.0944C35.4843 43.3482 35.1788 42.6614 34.8055 41.8134C34.4322 40.9654 34.0503 40.1175 33.6685 39.2695C33.4777 38.8366 33.2807 38.4006 33.0831 37.9634C32.9555 37.6812 32.8277 37.3984 32.7012 37.1156C32.4263 36.5306 32.1698 35.9455 31.9132 35.3604C31.7421 34.9703 31.5711 34.5802 31.3946 34.1901L27.0503 24.4894C26.8891 24.1332 26.73 23.7749 26.5709 23.4167C26.4119 23.0584 26.2528 22.7001 26.0915 22.344L24.9461 19.8001C24.7891 19.4439 24.63 19.0899 24.4709 18.7359C24.3118 18.3818 24.1528 18.0278 23.9958 17.6717C23.7051 17.046 23.4255 16.4203 23.1448 15.7922C22.9994 15.4669 22.8537 15.1409 22.7061 14.814L22.6552 14.6614C22.7208 14.6366 22.7932 14.6366 22.8588 14.6614H28.7982C30.3638 14.6552 31.8814 15.2017 33.0831 16.2047C33.9099 16.8857 34.5567 17.7593 34.9667 18.7486L36.0612 21.2501C36.164 21.4596 36.2547 21.6747 36.3328 21.8946L37.7497 24.9557L37.8222 25.12C38.2708 26.1368 38.6997 27.1086 39.1667 28.195C39.4704 28.9014 39.7773 29.5981 40.0834 30.2931C40.2734 30.7244 40.4631 31.155 40.6515 31.5869C40.7534 31.8328 40.8637 32.0787 40.974 32.3161C40.9979 32.3912 41.0322 32.4625 41.0758 32.5281C41.1284 32.5281 41.1352 32.4931 41.1402 32.4671C41.1441 32.4469 41.1469 32.4322 41.1691 32.4433C41.22 32.4688 41.22 32.5366 41.22 32.5366C41.7028 33.7067 42.4875 34.7278 43.494 35.496L43.6212 35.6147L44.2491 36.0557C45.1244 36.6048 46.0613 37.0488 47.0406 37.3785Z" fill="#38ABA5"/>
<path d="M51.287 31.7801C51.4543 31.8336 51.6175 31.8858 51.7836 31.9261L52.9121 29.4076C53.0121 29.1877 53.1092 28.9649 53.2068 28.7408C53.2748 28.5847 53.343 28.428 53.4127 28.2713C53.5013 28.0189 53.6062 27.7725 53.7267 27.5336L55.7376 23.0648C55.7472 23.0456 55.7588 23.0264 55.7706 23.007C55.8004 22.9579 55.8309 22.9075 55.8309 22.8528C55.8394 22.8345 55.8524 22.8187 55.8688 22.8068C55.8851 22.7949 55.9042 22.7874 55.9242 22.785C55.9324 22.7223 55.9526 22.6619 55.9836 22.6069L58.0539 17.9939C58.1048 17.943 58.1048 17.8837 58.1048 17.8074H52.2588C51.6074 17.7911 50.9575 17.8769 50.3327 18.0618C49.4195 18.3408 48.5767 18.8121 47.861 19.444C47.1453 20.0759 46.5733 20.8537 46.1836 21.725C46.1266 21.8701 46.0556 22.0092 45.9715 22.1405C45.9686 22.163 45.9686 22.1858 45.9715 22.2083C45.9121 23.0298 45.9121 23.8545 45.9715 24.6759C46.0104 25.4556 46.1183 26.2303 46.2939 26.9909C46.4596 27.7451 46.722 28.4747 47.0745 29.1617C47.5545 30.075 48.3553 30.7787 49.323 31.1375C49.8576 31.3325 50.3921 31.5106 50.9351 31.6717C51.0559 31.7062 51.1724 31.7435 51.287 31.7801Z" fill="#38ABA5"/>
<path d="M28.5606 30.6797C28.6098 30.7207 28.6428 30.7778 28.6539 30.8408C30.2661 34.3966 31.881 37.9496 33.4988 41.4998C33.5241 41.5482 33.5373 41.6021 33.5373 41.6567C33.5373 41.7113 33.5241 41.7651 33.4988 41.8136C31.4285 46.1891 29.3808 50.5703 27.3558 54.9571C27.3279 55.0285 27.2788 55.0895 27.215 55.132C27.1513 55.1745 27.076 55.1963 26.9994 55.1945C26.9234 55.1975 26.8487 55.1748 26.7872 55.1302C26.7256 55.0856 26.6808 55.0217 26.66 54.9486L24.0297 49.3012C18.656 37.8196 13.2964 26.3353 7.95091 14.8481L7.87454 14.67C7.92189 14.6582 7.97143 14.6582 8.01879 14.67H14.4164C15.7408 14.6816 17.0344 15.0708 18.1451 15.7918C19.2558 16.5129 20.1375 17.5357 20.6867 18.7403C22.7174 23.1723 24.7424 27.6044 26.7618 32.0365C26.8125 32.1675 26.8721 32.295 26.94 32.418C27.1209 32.7275 27.2769 33.0507 27.4067 33.3847L28.5606 30.6797Z" fill="#DEF0F3"/>
<path d="M41.1691 32.4689C40.9407 31.8423 40.7896 31.1902 40.7194 30.527C40.6346 29.8144 40.6346 29.0943 40.7194 28.3817C40.8202 27.3111 41.158 26.2764 41.7083 25.3524C42.2586 24.4284 43.0077 23.6384 43.9012 23.0394C44.5126 22.6266 45.1741 22.2932 45.8697 22.0473C45.9119 22.0179 45.9625 22.0031 46.0139 22.0049C46.0422 22.0049 46.0328 22.0426 46.0234 22.0803C46.0187 22.0991 46.0139 22.118 46.0139 22.1321C46.011 22.1546 46.011 22.1774 46.0139 22.1999C45.9546 23.0214 45.9546 23.8461 46.0139 24.6675C46.0529 25.4472 46.1608 26.2219 46.3364 26.9825C46.502 27.7367 46.7644 28.4663 47.117 29.1533C47.5969 30.0666 48.3977 30.7703 49.3655 31.1291C49.9 31.3241 50.4345 31.5022 50.9776 31.6633C51.0518 31.6865 51.126 31.7109 51.2009 31.7356C51.4 31.8012 51.6041 31.8684 51.8261 31.9177C52.0417 31.9656 52.2869 32.0599 52.5289 32.1531C52.6297 32.1919 52.7299 32.2304 52.8273 32.2654C53.9424 32.615 55.022 33.0693 56.0515 33.6221C56.8696 34.0545 57.6188 34.606 58.2745 35.2587C59.2499 36.252 59.8856 37.5284 60.0903 38.905C60.3172 40.2414 60.2622 41.6104 59.9291 42.9244C59.6776 43.9794 59.1894 44.9634 58.5015 45.8022C57.8136 46.6411 56.9439 47.3126 55.9582 47.7663C55.0068 48.2175 53.9951 48.5288 52.9545 48.6906C51.7041 48.8939 50.4354 48.9622 49.1703 48.8941C47.6508 48.8166 46.1492 48.5312 44.7073 48.0461H44.5715C44.5715 47.9698 44.5715 47.9104 44.6224 47.8511L45.9545 44.8747L45.9551 44.8736C46.2858 44.1362 46.6165 43.3989 46.9558 42.6615C46.9558 42.5936 46.9558 42.5088 47.083 42.4834H47.1764C48.449 42.973 49.8335 43.0964 51.1727 42.8396C51.5741 42.7628 51.9588 42.6164 52.3097 42.4071C52.5516 42.2469 52.752 42.0316 52.8943 41.7789C53.0367 41.5262 53.117 41.2433 53.1286 40.9535C53.1402 40.6637 53.0827 40.3753 52.961 40.1121C52.8393 39.8488 52.6568 39.6182 52.4285 39.4392C52.1714 39.2644 51.8953 39.1193 51.6055 39.0067C50.8418 38.6862 50.0782 38.4275 49.3146 38.1688L49.06 38.0824C49.019 38.0542 48.9729 38.034 48.9242 38.0231L47.083 37.3871C46.1037 37.0574 45.1667 36.6134 44.2915 36.0643L43.6212 35.6148L43.4939 35.4961C42.4857 34.7297 41.7007 33.708 41.22 32.5367C41.22 32.5367 41.203 32.4943 41.1691 32.4689Z" fill="#DEF0F3"/>
<path d="M53.7267 27.5338C53.6062 27.7727 53.5014 28.0191 53.4127 28.2715L53.574 28.3733C53.8724 28.6007 54.1558 28.8471 54.4224 29.111C54.4644 29.17 54.5237 29.2145 54.5921 29.2382L54.6939 29.1195L57.5449 26.1261L58.5546 25.0407C58.635 24.9604 58.6315 24.9562 58.5659 24.8765C58.5623 24.8721 58.5585 24.8675 58.5546 24.8627C58.4782 24.7694 58.3933 24.6761 58.3085 24.5913C57.6165 23.8554 56.8117 23.2342 55.9242 22.7512C55.9042 22.7537 55.8851 22.7612 55.8688 22.7731C55.8525 22.7849 55.8394 22.8008 55.8309 22.8191C55.8194 22.8449 55.805 22.8697 55.791 22.8939C55.7636 22.9413 55.7376 22.9862 55.7376 23.0311L53.7267 27.5338Z" fill="#DEF0F3"/>
</svg>